<mxfile host="app.diagrams.net" modified="2024-02-15T19:41:17.441Z" agent="Mozilla/5.0 (Windows NT 10.0; Win64; x64) AppleWebKit/537.36 (KHTML, like Gecko) Chrome/121.0.0.0 Safari/537.36" etag="CUL6456ApWjT-3daIgsU" version="23.1.4" type="device" pages="2">
  <diagram name="Página-1" id="dZEUjBI36013FUQBRa3M">
    <mxGraphModel dx="1050" dy="1734" grid="1" gridSize="10" guides="1" tooltips="1" connect="1" arrows="1" fold="1" page="1" pageScale="1" pageWidth="827" pageHeight="1169" math="0" shadow="0">
      <root>
        <mxCell id="0" />
        <mxCell id="1" parent="0" />
        <mxCell id="tXWb4igg1yKLMriXbqkV-7" value="" style="edgeStyle=orthogonalEdgeStyle;rounded=0;orthogonalLoop=1;jettySize=auto;html=1;" edge="1" parent="1" source="tXWb4igg1yKLMriXbqkV-4" target="tXWb4igg1yKLMriXbqkV-6">
          <mxGeometry relative="1" as="geometry" />
        </mxCell>
        <mxCell id="tXWb4igg1yKLMriXbqkV-4" value="Inicio" style="strokeWidth=2;html=1;shape=mxgraph.flowchart.start_1;whiteSpace=wrap;fillColor=#006600;" vertex="1" parent="1">
          <mxGeometry x="70" y="80" width="100" height="60" as="geometry" />
        </mxCell>
        <mxCell id="tXWb4igg1yKLMriXbqkV-9" value="" style="edgeStyle=orthogonalEdgeStyle;rounded=0;orthogonalLoop=1;jettySize=auto;html=1;" edge="1" parent="1" source="tXWb4igg1yKLMriXbqkV-6" target="tXWb4igg1yKLMriXbqkV-8">
          <mxGeometry relative="1" as="geometry" />
        </mxCell>
        <mxCell id="tXWb4igg1yKLMriXbqkV-6" value="Recebe o 1º número" style="shape=parallelogram;perimeter=parallelogramPerimeter;whiteSpace=wrap;html=1;fixedSize=1;fillColor=#CC6600;strokeWidth=2;" vertex="1" parent="1">
          <mxGeometry x="50" y="200" width="140" height="60" as="geometry" />
        </mxCell>
        <mxCell id="tXWb4igg1yKLMriXbqkV-11" value="" style="edgeStyle=orthogonalEdgeStyle;rounded=0;orthogonalLoop=1;jettySize=auto;html=1;" edge="1" parent="1" source="tXWb4igg1yKLMriXbqkV-8" target="tXWb4igg1yKLMriXbqkV-10">
          <mxGeometry relative="1" as="geometry" />
        </mxCell>
        <mxCell id="tXWb4igg1yKLMriXbqkV-8" value="Recebe o 2º número" style="shape=parallelogram;perimeter=parallelogramPerimeter;whiteSpace=wrap;html=1;fixedSize=1;fillColor=#CC6600;strokeWidth=2;" vertex="1" parent="1">
          <mxGeometry x="50" y="320" width="140" height="60" as="geometry" />
        </mxCell>
        <mxCell id="tXWb4igg1yKLMriXbqkV-14" value="" style="edgeStyle=orthogonalEdgeStyle;rounded=0;orthogonalLoop=1;jettySize=auto;html=1;" edge="1" parent="1" source="tXWb4igg1yKLMriXbqkV-10" target="tXWb4igg1yKLMriXbqkV-12">
          <mxGeometry relative="1" as="geometry" />
        </mxCell>
        <mxCell id="tXWb4igg1yKLMriXbqkV-10" value="Realiza a soma dos resultados obtidos" style="whiteSpace=wrap;html=1;fillColor=#007FFF;strokeWidth=2;" vertex="1" parent="1">
          <mxGeometry x="60" y="440" width="120" height="60" as="geometry" />
        </mxCell>
        <mxCell id="tXWb4igg1yKLMriXbqkV-16" value="" style="edgeStyle=orthogonalEdgeStyle;rounded=0;orthogonalLoop=1;jettySize=auto;html=1;" edge="1" parent="1" source="tXWb4igg1yKLMriXbqkV-12" target="tXWb4igg1yKLMriXbqkV-15">
          <mxGeometry relative="1" as="geometry" />
        </mxCell>
        <mxCell id="tXWb4igg1yKLMriXbqkV-12" value="Exibe o resultado da soma" style="strokeWidth=2;html=1;shape=mxgraph.flowchart.display;whiteSpace=wrap;fillColor=#CC6600;" vertex="1" parent="1">
          <mxGeometry x="65" y="555" width="110" height="60" as="geometry" />
        </mxCell>
        <mxCell id="tXWb4igg1yKLMriXbqkV-15" value="Fim" style="strokeWidth=2;html=1;shape=mxgraph.flowchart.start_1;whiteSpace=wrap;fillColor=#FF6666;" vertex="1" parent="1">
          <mxGeometry x="70" y="670" width="100" height="60" as="geometry" />
        </mxCell>
        <mxCell id="tXWb4igg1yKLMriXbqkV-40" value="" style="edgeStyle=orthogonalEdgeStyle;rounded=0;orthogonalLoop=1;jettySize=auto;html=1;" edge="1" parent="1" source="tXWb4igg1yKLMriXbqkV-24" target="tXWb4igg1yKLMriXbqkV-39">
          <mxGeometry relative="1" as="geometry" />
        </mxCell>
        <mxCell id="tXWb4igg1yKLMriXbqkV-24" value="Inicio" style="strokeWidth=2;html=1;shape=mxgraph.flowchart.start_1;whiteSpace=wrap;fillColor=#006600;" vertex="1" parent="1">
          <mxGeometry x="440" y="80" width="100" height="60" as="geometry" />
        </mxCell>
        <mxCell id="tXWb4igg1yKLMriXbqkV-26" value="" style="verticalLabelPosition=bottom;verticalAlign=top;html=1;shape=mxgraph.flowchart.sort;rotation=45;fillColor=#330000;" vertex="1" parent="1">
          <mxGeometry x="690" y="-10" width="50" height="50" as="geometry" />
        </mxCell>
        <mxCell id="tXWb4igg1yKLMriXbqkV-27" value="" style="verticalLabelPosition=bottom;verticalAlign=top;html=1;shape=mxgraph.flowchart.sort;rotation=45;fillColor=#331A00;" vertex="1" parent="1">
          <mxGeometry x="690" y="20" width="50" height="50" as="geometry" />
        </mxCell>
        <mxCell id="tXWb4igg1yKLMriXbqkV-28" value="" style="verticalLabelPosition=bottom;verticalAlign=top;html=1;shape=mxgraph.flowchart.sort;rotation=45;fillColor=#333300;" vertex="1" parent="1">
          <mxGeometry x="690" y="50" width="50" height="50" as="geometry" />
        </mxCell>
        <mxCell id="tXWb4igg1yKLMriXbqkV-29" value="" style="verticalLabelPosition=bottom;verticalAlign=top;html=1;shape=mxgraph.flowchart.sort;rotation=45;fillColor=#1A3300;" vertex="1" parent="1">
          <mxGeometry x="690" y="80" width="50" height="50" as="geometry" />
        </mxCell>
        <mxCell id="tXWb4igg1yKLMriXbqkV-31" value="" style="verticalLabelPosition=bottom;verticalAlign=top;html=1;shape=mxgraph.flowchart.sort;rotation=45;fillColor=#003300;" vertex="1" parent="1">
          <mxGeometry x="690" y="110" width="50" height="50" as="geometry" />
        </mxCell>
        <mxCell id="tXWb4igg1yKLMriXbqkV-32" value="" style="verticalLabelPosition=bottom;verticalAlign=top;html=1;shape=mxgraph.flowchart.sort;rotation=45;fillColor=#00331A;" vertex="1" parent="1">
          <mxGeometry x="690" y="140" width="50" height="50" as="geometry" />
        </mxCell>
        <mxCell id="tXWb4igg1yKLMriXbqkV-33" value="" style="verticalLabelPosition=bottom;verticalAlign=top;html=1;shape=mxgraph.flowchart.sort;rotation=45;fillColor=#003333;" vertex="1" parent="1">
          <mxGeometry x="690" y="170" width="50" height="50" as="geometry" />
        </mxCell>
        <mxCell id="tXWb4igg1yKLMriXbqkV-34" value="" style="verticalLabelPosition=bottom;verticalAlign=top;html=1;shape=mxgraph.flowchart.sort;rotation=45;fillColor=#001933;" vertex="1" parent="1">
          <mxGeometry x="690" y="200" width="50" height="50" as="geometry" />
        </mxCell>
        <mxCell id="tXWb4igg1yKLMriXbqkV-35" value="" style="verticalLabelPosition=bottom;verticalAlign=top;html=1;shape=mxgraph.flowchart.sort;rotation=45;fillColor=#000033;" vertex="1" parent="1">
          <mxGeometry x="690" y="230" width="50" height="50" as="geometry" />
        </mxCell>
        <mxCell id="tXWb4igg1yKLMriXbqkV-36" value="" style="verticalLabelPosition=bottom;verticalAlign=top;html=1;shape=mxgraph.flowchart.sort;rotation=45;fillColor=#190033;" vertex="1" parent="1">
          <mxGeometry x="690" y="260" width="50" height="50" as="geometry" />
        </mxCell>
        <mxCell id="tXWb4igg1yKLMriXbqkV-37" value="" style="verticalLabelPosition=bottom;verticalAlign=top;html=1;shape=mxgraph.flowchart.sort;rotation=45;fillColor=#330033;" vertex="1" parent="1">
          <mxGeometry x="690" y="290" width="50" height="50" as="geometry" />
        </mxCell>
        <mxCell id="tXWb4igg1yKLMriXbqkV-38" value="" style="verticalLabelPosition=bottom;verticalAlign=top;html=1;shape=mxgraph.flowchart.sort;rotation=45;fillColor=#33001A;" vertex="1" parent="1">
          <mxGeometry x="690" y="320" width="50" height="50" as="geometry" />
        </mxCell>
        <mxCell id="tXWb4igg1yKLMriXbqkV-42" value="" style="edgeStyle=orthogonalEdgeStyle;rounded=0;orthogonalLoop=1;jettySize=auto;html=1;" edge="1" parent="1" source="tXWb4igg1yKLMriXbqkV-39" target="tXWb4igg1yKLMriXbqkV-41">
          <mxGeometry relative="1" as="geometry" />
        </mxCell>
        <mxCell id="tXWb4igg1yKLMriXbqkV-39" value="Obter 1º nota" style="shape=parallelogram;perimeter=parallelogramPerimeter;whiteSpace=wrap;html=1;fixedSize=1;fillColor=#CC6600;strokeWidth=2;" vertex="1" parent="1">
          <mxGeometry x="425" y="200" width="130" height="60" as="geometry" />
        </mxCell>
        <mxCell id="tXWb4igg1yKLMriXbqkV-44" value="" style="edgeStyle=orthogonalEdgeStyle;rounded=0;orthogonalLoop=1;jettySize=auto;html=1;" edge="1" parent="1" source="tXWb4igg1yKLMriXbqkV-41" target="tXWb4igg1yKLMriXbqkV-43">
          <mxGeometry relative="1" as="geometry" />
        </mxCell>
        <mxCell id="tXWb4igg1yKLMriXbqkV-41" value="Obter 2º nota" style="shape=parallelogram;perimeter=parallelogramPerimeter;whiteSpace=wrap;html=1;fixedSize=1;fillColor=#CC6600;strokeWidth=2;" vertex="1" parent="1">
          <mxGeometry x="425" y="320" width="130" height="60" as="geometry" />
        </mxCell>
        <mxCell id="tXWb4igg1yKLMriXbqkV-46" value="" style="edgeStyle=orthogonalEdgeStyle;rounded=0;orthogonalLoop=1;jettySize=auto;html=1;" edge="1" parent="1" source="tXWb4igg1yKLMriXbqkV-43" target="tXWb4igg1yKLMriXbqkV-45">
          <mxGeometry relative="1" as="geometry" />
        </mxCell>
        <mxCell id="tXWb4igg1yKLMriXbqkV-43" value="Realiza o calculo da média" style="whiteSpace=wrap;html=1;fillColor=#007FFF;strokeWidth=2;" vertex="1" parent="1">
          <mxGeometry x="430" y="440" width="120" height="60" as="geometry" />
        </mxCell>
        <mxCell id="tXWb4igg1yKLMriXbqkV-48" value="" style="edgeStyle=orthogonalEdgeStyle;rounded=0;orthogonalLoop=1;jettySize=auto;html=1;" edge="1" parent="1" source="tXWb4igg1yKLMriXbqkV-45" target="tXWb4igg1yKLMriXbqkV-47">
          <mxGeometry relative="1" as="geometry" />
        </mxCell>
        <mxCell id="tXWb4igg1yKLMriXbqkV-51" value="" style="edgeStyle=orthogonalEdgeStyle;rounded=0;orthogonalLoop=1;jettySize=auto;html=1;" edge="1" parent="1" source="tXWb4igg1yKLMriXbqkV-45" target="tXWb4igg1yKLMriXbqkV-50">
          <mxGeometry relative="1" as="geometry" />
        </mxCell>
        <mxCell id="tXWb4igg1yKLMriXbqkV-45" value="Média acima de 7?" style="rhombus;whiteSpace=wrap;html=1;fillColor=#666600;strokeWidth=2;" vertex="1" parent="1">
          <mxGeometry x="427.5" y="545" width="125" height="85" as="geometry" />
        </mxCell>
        <mxCell id="tXWb4igg1yKLMriXbqkV-55" value="" style="edgeStyle=orthogonalEdgeStyle;rounded=0;orthogonalLoop=1;jettySize=auto;html=1;" edge="1" parent="1" source="tXWb4igg1yKLMriXbqkV-47" target="tXWb4igg1yKLMriXbqkV-52">
          <mxGeometry relative="1" as="geometry">
            <Array as="points">
              <mxPoint x="655" y="900" />
            </Array>
          </mxGeometry>
        </mxCell>
        <mxCell id="tXWb4igg1yKLMriXbqkV-47" value="Exibir &quot;aprovado&quot;" style="strokeWidth=2;html=1;shape=mxgraph.flowchart.display;whiteSpace=wrap;fillColor=#CC6600;" vertex="1" parent="1">
          <mxGeometry x="600" y="722.5" width="110" height="60" as="geometry" />
        </mxCell>
        <mxCell id="tXWb4igg1yKLMriXbqkV-54" value="" style="edgeStyle=orthogonalEdgeStyle;rounded=0;orthogonalLoop=1;jettySize=auto;html=1;" edge="1" parent="1" source="tXWb4igg1yKLMriXbqkV-50" target="tXWb4igg1yKLMriXbqkV-52">
          <mxGeometry relative="1" as="geometry">
            <Array as="points">
              <mxPoint x="335" y="900" />
            </Array>
          </mxGeometry>
        </mxCell>
        <mxCell id="tXWb4igg1yKLMriXbqkV-50" value="Exibir &quot;reprovado&quot;" style="strokeWidth=2;html=1;shape=mxgraph.flowchart.display;whiteSpace=wrap;fillColor=#CC6600;" vertex="1" parent="1">
          <mxGeometry x="280" y="721.25" width="110" height="62.5" as="geometry" />
        </mxCell>
        <mxCell id="tXWb4igg1yKLMriXbqkV-52" value="Fim" style="strokeWidth=2;html=1;shape=mxgraph.flowchart.start_1;whiteSpace=wrap;fillColor=#FF6666;" vertex="1" parent="1">
          <mxGeometry x="440" y="870" width="100" height="60" as="geometry" />
        </mxCell>
        <mxCell id="tXWb4igg1yKLMriXbqkV-56" value="Sim" style="text;html=1;align=center;verticalAlign=middle;resizable=0;points=[];autosize=1;strokeColor=none;fillColor=none;" vertex="1" parent="1">
          <mxGeometry x="610" y="555" width="40" height="30" as="geometry" />
        </mxCell>
        <mxCell id="tXWb4igg1yKLMriXbqkV-57" value="Não" style="text;html=1;align=center;verticalAlign=middle;resizable=0;points=[];autosize=1;strokeColor=none;fillColor=none;" vertex="1" parent="1">
          <mxGeometry x="340" y="555" width="50" height="30" as="geometry" />
        </mxCell>
        <mxCell id="tXWb4igg1yKLMriXbqkV-65" value="" style="verticalLabelPosition=bottom;verticalAlign=top;html=1;shape=mxgraph.flowchart.sort;rotation=45;fillColor=#660000;" vertex="1" parent="1">
          <mxGeometry x="730" y="-10" width="50" height="50" as="geometry" />
        </mxCell>
        <mxCell id="tXWb4igg1yKLMriXbqkV-66" value="" style="verticalLabelPosition=bottom;verticalAlign=top;html=1;shape=mxgraph.flowchart.sort;rotation=45;fillColor=#663300;" vertex="1" parent="1">
          <mxGeometry x="730" y="20" width="50" height="50" as="geometry" />
        </mxCell>
        <mxCell id="tXWb4igg1yKLMriXbqkV-67" value="" style="verticalLabelPosition=bottom;verticalAlign=top;html=1;shape=mxgraph.flowchart.sort;rotation=45;fillColor=#666600;" vertex="1" parent="1">
          <mxGeometry x="730" y="50" width="50" height="50" as="geometry" />
        </mxCell>
        <mxCell id="tXWb4igg1yKLMriXbqkV-68" value="" style="verticalLabelPosition=bottom;verticalAlign=top;html=1;shape=mxgraph.flowchart.sort;rotation=45;fillColor=#336600;" vertex="1" parent="1">
          <mxGeometry x="730" y="80" width="50" height="50" as="geometry" />
        </mxCell>
        <mxCell id="tXWb4igg1yKLMriXbqkV-69" value="" style="verticalLabelPosition=bottom;verticalAlign=top;html=1;shape=mxgraph.flowchart.sort;rotation=45;fillColor=#006600;" vertex="1" parent="1">
          <mxGeometry x="730" y="110" width="50" height="50" as="geometry" />
        </mxCell>
        <mxCell id="tXWb4igg1yKLMriXbqkV-70" value="" style="verticalLabelPosition=bottom;verticalAlign=top;html=1;shape=mxgraph.flowchart.sort;rotation=45;fillColor=#006633;" vertex="1" parent="1">
          <mxGeometry x="730" y="140" width="50" height="50" as="geometry" />
        </mxCell>
        <mxCell id="tXWb4igg1yKLMriXbqkV-71" value="" style="verticalLabelPosition=bottom;verticalAlign=top;html=1;shape=mxgraph.flowchart.sort;rotation=45;fillColor=#006666;" vertex="1" parent="1">
          <mxGeometry x="730" y="170" width="50" height="50" as="geometry" />
        </mxCell>
        <mxCell id="tXWb4igg1yKLMriXbqkV-72" value="" style="verticalLabelPosition=bottom;verticalAlign=top;html=1;shape=mxgraph.flowchart.sort;rotation=45;fillColor=#003366;" vertex="1" parent="1">
          <mxGeometry x="730" y="200" width="50" height="50" as="geometry" />
        </mxCell>
        <mxCell id="tXWb4igg1yKLMriXbqkV-73" value="" style="verticalLabelPosition=bottom;verticalAlign=top;html=1;shape=mxgraph.flowchart.sort;rotation=45;fillColor=#000066;" vertex="1" parent="1">
          <mxGeometry x="730" y="230" width="50" height="50" as="geometry" />
        </mxCell>
        <mxCell id="tXWb4igg1yKLMriXbqkV-74" value="" style="verticalLabelPosition=bottom;verticalAlign=top;html=1;shape=mxgraph.flowchart.sort;rotation=45;fillColor=#330066;" vertex="1" parent="1">
          <mxGeometry x="730" y="260" width="50" height="50" as="geometry" />
        </mxCell>
        <mxCell id="tXWb4igg1yKLMriXbqkV-75" value="" style="verticalLabelPosition=bottom;verticalAlign=top;html=1;shape=mxgraph.flowchart.sort;rotation=45;fillColor=#660066;" vertex="1" parent="1">
          <mxGeometry x="730" y="290" width="50" height="50" as="geometry" />
        </mxCell>
        <mxCell id="tXWb4igg1yKLMriXbqkV-76" value="" style="verticalLabelPosition=bottom;verticalAlign=top;html=1;shape=mxgraph.flowchart.sort;rotation=45;fillColor=#660033;" vertex="1" parent="1">
          <mxGeometry x="730" y="320" width="50" height="50" as="geometry" />
        </mxCell>
        <mxCell id="tXWb4igg1yKLMriXbqkV-77" value="" style="verticalLabelPosition=bottom;verticalAlign=top;html=1;shape=mxgraph.flowchart.sort;rotation=45;fillColor=#990000;" vertex="1" parent="1">
          <mxGeometry x="770" y="-10" width="50" height="50" as="geometry" />
        </mxCell>
        <mxCell id="tXWb4igg1yKLMriXbqkV-78" value="" style="verticalLabelPosition=bottom;verticalAlign=top;html=1;shape=mxgraph.flowchart.sort;rotation=45;fillColor=#994C00;" vertex="1" parent="1">
          <mxGeometry x="770" y="20" width="50" height="50" as="geometry" />
        </mxCell>
        <mxCell id="tXWb4igg1yKLMriXbqkV-79" value="" style="verticalLabelPosition=bottom;verticalAlign=top;html=1;shape=mxgraph.flowchart.sort;rotation=45;fillColor=#999900;" vertex="1" parent="1">
          <mxGeometry x="770" y="50" width="50" height="50" as="geometry" />
        </mxCell>
        <mxCell id="tXWb4igg1yKLMriXbqkV-80" value="" style="verticalLabelPosition=bottom;verticalAlign=top;html=1;shape=mxgraph.flowchart.sort;rotation=45;fillColor=#4D9900;" vertex="1" parent="1">
          <mxGeometry x="770" y="80" width="50" height="50" as="geometry" />
        </mxCell>
        <mxCell id="tXWb4igg1yKLMriXbqkV-81" value="" style="verticalLabelPosition=bottom;verticalAlign=top;html=1;shape=mxgraph.flowchart.sort;rotation=45;fillColor=#009900;" vertex="1" parent="1">
          <mxGeometry x="770" y="110" width="50" height="50" as="geometry" />
        </mxCell>
        <mxCell id="tXWb4igg1yKLMriXbqkV-82" value="" style="verticalLabelPosition=bottom;verticalAlign=top;html=1;shape=mxgraph.flowchart.sort;rotation=45;fillColor=#00994D;" vertex="1" parent="1">
          <mxGeometry x="770" y="140" width="50" height="50" as="geometry" />
        </mxCell>
        <mxCell id="tXWb4igg1yKLMriXbqkV-83" value="" style="verticalLabelPosition=bottom;verticalAlign=top;html=1;shape=mxgraph.flowchart.sort;rotation=45;fillColor=#009999;" vertex="1" parent="1">
          <mxGeometry x="770" y="170" width="50" height="50" as="geometry" />
        </mxCell>
        <mxCell id="tXWb4igg1yKLMriXbqkV-84" value="" style="verticalLabelPosition=bottom;verticalAlign=top;html=1;shape=mxgraph.flowchart.sort;rotation=45;fillColor=#004C99;" vertex="1" parent="1">
          <mxGeometry x="770" y="200" width="50" height="50" as="geometry" />
        </mxCell>
        <mxCell id="tXWb4igg1yKLMriXbqkV-85" value="" style="verticalLabelPosition=bottom;verticalAlign=top;html=1;shape=mxgraph.flowchart.sort;rotation=45;fillColor=#000099;" vertex="1" parent="1">
          <mxGeometry x="770" y="230" width="50" height="50" as="geometry" />
        </mxCell>
        <mxCell id="tXWb4igg1yKLMriXbqkV-86" value="" style="verticalLabelPosition=bottom;verticalAlign=top;html=1;shape=mxgraph.flowchart.sort;rotation=45;fillColor=#4C0099;" vertex="1" parent="1">
          <mxGeometry x="770" y="260" width="50" height="50" as="geometry" />
        </mxCell>
        <mxCell id="tXWb4igg1yKLMriXbqkV-87" value="" style="verticalLabelPosition=bottom;verticalAlign=top;html=1;shape=mxgraph.flowchart.sort;rotation=45;fillColor=#990099;" vertex="1" parent="1">
          <mxGeometry x="770" y="290" width="50" height="50" as="geometry" />
        </mxCell>
        <mxCell id="tXWb4igg1yKLMriXbqkV-88" value="" style="verticalLabelPosition=bottom;verticalAlign=top;html=1;shape=mxgraph.flowchart.sort;rotation=45;fillColor=#99004D;" vertex="1" parent="1">
          <mxGeometry x="770" y="320" width="50" height="50" as="geometry" />
        </mxCell>
        <mxCell id="DA3PYm41nEWVPTWsvzmi-2" value="" style="verticalLabelPosition=bottom;verticalAlign=top;html=1;shape=mxgraph.flowchart.sort;rotation=45;fillColor=#CC0000;" vertex="1" parent="1">
          <mxGeometry x="810" y="-10" width="50" height="50" as="geometry" />
        </mxCell>
        <mxCell id="DA3PYm41nEWVPTWsvzmi-3" value="" style="verticalLabelPosition=bottom;verticalAlign=top;html=1;shape=mxgraph.flowchart.sort;rotation=45;fillColor=#CC6600;" vertex="1" parent="1">
          <mxGeometry x="810" y="20" width="50" height="50" as="geometry" />
        </mxCell>
        <mxCell id="DA3PYm41nEWVPTWsvzmi-4" value="" style="verticalLabelPosition=bottom;verticalAlign=top;html=1;shape=mxgraph.flowchart.sort;rotation=45;fillColor=#CCCC00;" vertex="1" parent="1">
          <mxGeometry x="810" y="50" width="50" height="50" as="geometry" />
        </mxCell>
        <mxCell id="IXjTrgNnJ_vQWwTp4D6V-1" value="" style="verticalLabelPosition=bottom;verticalAlign=top;html=1;shape=mxgraph.flowchart.sort;rotation=45;fillColor=#66CC00;" vertex="1" parent="1">
          <mxGeometry x="810" y="80" width="50" height="50" as="geometry" />
        </mxCell>
        <mxCell id="IXjTrgNnJ_vQWwTp4D6V-2" value="" style="verticalLabelPosition=bottom;verticalAlign=top;html=1;shape=mxgraph.flowchart.sort;rotation=45;fillColor=#00CC00;" vertex="1" parent="1">
          <mxGeometry x="810" y="110" width="50" height="50" as="geometry" />
        </mxCell>
        <mxCell id="IXjTrgNnJ_vQWwTp4D6V-5" value="" style="verticalLabelPosition=bottom;verticalAlign=top;html=1;shape=mxgraph.flowchart.sort;rotation=45;fillColor=#00CC66;" vertex="1" parent="1">
          <mxGeometry x="810" y="140" width="50" height="50" as="geometry" />
        </mxCell>
        <mxCell id="IXjTrgNnJ_vQWwTp4D6V-6" value="" style="verticalLabelPosition=bottom;verticalAlign=top;html=1;shape=mxgraph.flowchart.sort;rotation=45;fillColor=#00CCCC;" vertex="1" parent="1">
          <mxGeometry x="810" y="170" width="50" height="50" as="geometry" />
        </mxCell>
        <mxCell id="IXjTrgNnJ_vQWwTp4D6V-7" value="" style="verticalLabelPosition=bottom;verticalAlign=top;html=1;shape=mxgraph.flowchart.sort;rotation=45;fillColor=#0066CC;" vertex="1" parent="1">
          <mxGeometry x="810" y="200" width="50" height="50" as="geometry" />
        </mxCell>
        <mxCell id="IXjTrgNnJ_vQWwTp4D6V-8" value="" style="verticalLabelPosition=bottom;verticalAlign=top;html=1;shape=mxgraph.flowchart.sort;rotation=45;fillColor=#0000CC;" vertex="1" parent="1">
          <mxGeometry x="810" y="230" width="50" height="50" as="geometry" />
        </mxCell>
        <mxCell id="IXjTrgNnJ_vQWwTp4D6V-9" value="" style="verticalLabelPosition=bottom;verticalAlign=top;html=1;shape=mxgraph.flowchart.sort;rotation=45;fillColor=#6600CC;" vertex="1" parent="1">
          <mxGeometry x="810" y="260" width="50" height="50" as="geometry" />
        </mxCell>
        <mxCell id="IXjTrgNnJ_vQWwTp4D6V-10" value="" style="verticalLabelPosition=bottom;verticalAlign=top;html=1;shape=mxgraph.flowchart.sort;rotation=45;fillColor=#CC00CC;" vertex="1" parent="1">
          <mxGeometry x="810" y="290" width="50" height="50" as="geometry" />
        </mxCell>
        <mxCell id="IXjTrgNnJ_vQWwTp4D6V-11" value="" style="verticalLabelPosition=bottom;verticalAlign=top;html=1;shape=mxgraph.flowchart.sort;rotation=45;fillColor=#CC0066;" vertex="1" parent="1">
          <mxGeometry x="810" y="320" width="50" height="50" as="geometry" />
        </mxCell>
        <mxCell id="yDH07ltFrhU01hjtsPNI-1" value="" style="verticalLabelPosition=bottom;verticalAlign=top;html=1;shape=mxgraph.flowchart.sort;rotation=45;fillColor=#FF0000;" vertex="1" parent="1">
          <mxGeometry x="850" y="-10" width="50" height="50" as="geometry" />
        </mxCell>
        <mxCell id="yDH07ltFrhU01hjtsPNI-2" value="" style="verticalLabelPosition=bottom;verticalAlign=top;html=1;shape=mxgraph.flowchart.sort;rotation=45;fillColor=#FF8000;" vertex="1" parent="1">
          <mxGeometry x="850" y="20" width="50" height="50" as="geometry" />
        </mxCell>
        <mxCell id="yDH07ltFrhU01hjtsPNI-3" value="" style="verticalLabelPosition=bottom;verticalAlign=top;html=1;shape=mxgraph.flowchart.sort;rotation=45;fillColor=#FFFF00;" vertex="1" parent="1">
          <mxGeometry x="850" y="50" width="50" height="50" as="geometry" />
        </mxCell>
        <mxCell id="yDH07ltFrhU01hjtsPNI-4" value="" style="verticalLabelPosition=bottom;verticalAlign=top;html=1;shape=mxgraph.flowchart.sort;rotation=45;fillColor=#80FF00;" vertex="1" parent="1">
          <mxGeometry x="850" y="80" width="50" height="50" as="geometry" />
        </mxCell>
        <mxCell id="yDH07ltFrhU01hjtsPNI-5" value="" style="verticalLabelPosition=bottom;verticalAlign=top;html=1;shape=mxgraph.flowchart.sort;rotation=45;fillColor=#00FF00;" vertex="1" parent="1">
          <mxGeometry x="850" y="110" width="50" height="50" as="geometry" />
        </mxCell>
        <mxCell id="yDH07ltFrhU01hjtsPNI-6" value="" style="verticalLabelPosition=bottom;verticalAlign=top;html=1;shape=mxgraph.flowchart.sort;rotation=45;fillColor=#00FF80;" vertex="1" parent="1">
          <mxGeometry x="850" y="140" width="50" height="50" as="geometry" />
        </mxCell>
        <mxCell id="yDH07ltFrhU01hjtsPNI-7" value="" style="verticalLabelPosition=bottom;verticalAlign=top;html=1;shape=mxgraph.flowchart.sort;rotation=45;fillColor=#00FFFF;" vertex="1" parent="1">
          <mxGeometry x="850" y="170" width="50" height="50" as="geometry" />
        </mxCell>
        <mxCell id="yDH07ltFrhU01hjtsPNI-8" value="" style="verticalLabelPosition=bottom;verticalAlign=top;html=1;shape=mxgraph.flowchart.sort;rotation=45;fillColor=#007FFF;" vertex="1" parent="1">
          <mxGeometry x="850" y="200" width="50" height="50" as="geometry" />
        </mxCell>
        <mxCell id="yDH07ltFrhU01hjtsPNI-9" value="" style="verticalLabelPosition=bottom;verticalAlign=top;html=1;shape=mxgraph.flowchart.sort;rotation=45;fillColor=#0000FF;" vertex="1" parent="1">
          <mxGeometry x="850" y="230" width="50" height="50" as="geometry" />
        </mxCell>
        <mxCell id="yDH07ltFrhU01hjtsPNI-10" value="" style="verticalLabelPosition=bottom;verticalAlign=top;html=1;shape=mxgraph.flowchart.sort;rotation=45;fillColor=#7F00FF;" vertex="1" parent="1">
          <mxGeometry x="850" y="260" width="50" height="50" as="geometry" />
        </mxCell>
        <mxCell id="yDH07ltFrhU01hjtsPNI-11" value="" style="verticalLabelPosition=bottom;verticalAlign=top;html=1;shape=mxgraph.flowchart.sort;rotation=45;fillColor=#FF00FF;" vertex="1" parent="1">
          <mxGeometry x="850" y="290" width="50" height="50" as="geometry" />
        </mxCell>
        <mxCell id="yDH07ltFrhU01hjtsPNI-12" value="" style="verticalLabelPosition=bottom;verticalAlign=top;html=1;shape=mxgraph.flowchart.sort;rotation=45;fillColor=#FF0080;" vertex="1" parent="1">
          <mxGeometry x="850" y="320" width="50" height="50" as="geometry" />
        </mxCell>
        <mxCell id="yDH07ltFrhU01hjtsPNI-13" value="" style="verticalLabelPosition=bottom;verticalAlign=top;html=1;shape=mxgraph.flowchart.sort;rotation=45;fillColor=#FF3333;" vertex="1" parent="1">
          <mxGeometry x="890" y="-10" width="50" height="50" as="geometry" />
        </mxCell>
        <mxCell id="yDH07ltFrhU01hjtsPNI-14" value="" style="verticalLabelPosition=bottom;verticalAlign=top;html=1;shape=mxgraph.flowchart.sort;rotation=45;fillColor=#FF9933;" vertex="1" parent="1">
          <mxGeometry x="890" y="20" width="50" height="50" as="geometry" />
        </mxCell>
        <mxCell id="yDH07ltFrhU01hjtsPNI-15" value="" style="verticalLabelPosition=bottom;verticalAlign=top;html=1;shape=mxgraph.flowchart.sort;rotation=45;fillColor=#FFFF33;" vertex="1" parent="1">
          <mxGeometry x="890" y="50" width="50" height="50" as="geometry" />
        </mxCell>
        <mxCell id="yDH07ltFrhU01hjtsPNI-16" value="" style="verticalLabelPosition=bottom;verticalAlign=top;html=1;shape=mxgraph.flowchart.sort;rotation=45;fillColor=#99FF33;" vertex="1" parent="1">
          <mxGeometry x="890" y="80" width="50" height="50" as="geometry" />
        </mxCell>
        <mxCell id="yDH07ltFrhU01hjtsPNI-17" value="" style="verticalLabelPosition=bottom;verticalAlign=top;html=1;shape=mxgraph.flowchart.sort;rotation=45;fillColor=#33FF33;" vertex="1" parent="1">
          <mxGeometry x="890" y="110" width="50" height="50" as="geometry" />
        </mxCell>
        <mxCell id="yDH07ltFrhU01hjtsPNI-18" value="" style="verticalLabelPosition=bottom;verticalAlign=top;html=1;shape=mxgraph.flowchart.sort;rotation=45;fillColor=#33FF99;" vertex="1" parent="1">
          <mxGeometry x="890" y="140" width="50" height="50" as="geometry" />
        </mxCell>
        <mxCell id="yDH07ltFrhU01hjtsPNI-19" value="" style="verticalLabelPosition=bottom;verticalAlign=top;html=1;shape=mxgraph.flowchart.sort;rotation=45;fillColor=#33FFFF;" vertex="1" parent="1">
          <mxGeometry x="890" y="170" width="50" height="50" as="geometry" />
        </mxCell>
        <mxCell id="yDH07ltFrhU01hjtsPNI-20" value="" style="verticalLabelPosition=bottom;verticalAlign=top;html=1;shape=mxgraph.flowchart.sort;rotation=45;fillColor=#3399FF;" vertex="1" parent="1">
          <mxGeometry x="890" y="200" width="50" height="50" as="geometry" />
        </mxCell>
        <mxCell id="yDH07ltFrhU01hjtsPNI-21" value="" style="verticalLabelPosition=bottom;verticalAlign=top;html=1;shape=mxgraph.flowchart.sort;rotation=45;fillColor=#3333FF;" vertex="1" parent="1">
          <mxGeometry x="890" y="230" width="50" height="50" as="geometry" />
        </mxCell>
        <mxCell id="yDH07ltFrhU01hjtsPNI-22" value="" style="verticalLabelPosition=bottom;verticalAlign=top;html=1;shape=mxgraph.flowchart.sort;rotation=45;fillColor=#9933FF;" vertex="1" parent="1">
          <mxGeometry x="890" y="260" width="50" height="50" as="geometry" />
        </mxCell>
        <mxCell id="yDH07ltFrhU01hjtsPNI-23" value="" style="verticalLabelPosition=bottom;verticalAlign=top;html=1;shape=mxgraph.flowchart.sort;rotation=45;fillColor=#FF33FF;" vertex="1" parent="1">
          <mxGeometry x="890" y="290" width="50" height="50" as="geometry" />
        </mxCell>
        <mxCell id="yDH07ltFrhU01hjtsPNI-24" value="" style="verticalLabelPosition=bottom;verticalAlign=top;html=1;shape=mxgraph.flowchart.sort;rotation=45;fillColor=#FF3399;" vertex="1" parent="1">
          <mxGeometry x="890" y="320" width="50" height="50" as="geometry" />
        </mxCell>
        <mxCell id="yDH07ltFrhU01hjtsPNI-25" value="" style="verticalLabelPosition=bottom;verticalAlign=top;html=1;shape=mxgraph.flowchart.sort;rotation=45;fillColor=#FF6666;" vertex="1" parent="1">
          <mxGeometry x="930" y="-10" width="50" height="50" as="geometry" />
        </mxCell>
        <mxCell id="yDH07ltFrhU01hjtsPNI-26" value="" style="verticalLabelPosition=bottom;verticalAlign=top;html=1;shape=mxgraph.flowchart.sort;rotation=45;fillColor=#FFB366;" vertex="1" parent="1">
          <mxGeometry x="930" y="20" width="50" height="50" as="geometry" />
        </mxCell>
        <mxCell id="yDH07ltFrhU01hjtsPNI-27" value="" style="verticalLabelPosition=bottom;verticalAlign=top;html=1;shape=mxgraph.flowchart.sort;rotation=45;fillColor=#FFFF66;" vertex="1" parent="1">
          <mxGeometry x="930" y="50" width="50" height="50" as="geometry" />
        </mxCell>
        <mxCell id="yDH07ltFrhU01hjtsPNI-28" value="" style="verticalLabelPosition=bottom;verticalAlign=top;html=1;shape=mxgraph.flowchart.sort;rotation=45;fillColor=#B3FF66;" vertex="1" parent="1">
          <mxGeometry x="930" y="80" width="50" height="50" as="geometry" />
        </mxCell>
        <mxCell id="yDH07ltFrhU01hjtsPNI-29" value="" style="verticalLabelPosition=bottom;verticalAlign=top;html=1;shape=mxgraph.flowchart.sort;rotation=45;fillColor=#66FF66;" vertex="1" parent="1">
          <mxGeometry x="930" y="110" width="50" height="50" as="geometry" />
        </mxCell>
        <mxCell id="yDH07ltFrhU01hjtsPNI-30" value="" style="verticalLabelPosition=bottom;verticalAlign=top;html=1;shape=mxgraph.flowchart.sort;rotation=45;fillColor=#66FFB3;" vertex="1" parent="1">
          <mxGeometry x="930" y="140" width="50" height="50" as="geometry" />
        </mxCell>
        <mxCell id="yDH07ltFrhU01hjtsPNI-31" value="" style="verticalLabelPosition=bottom;verticalAlign=top;html=1;shape=mxgraph.flowchart.sort;rotation=45;fillColor=#66FFFF;" vertex="1" parent="1">
          <mxGeometry x="930" y="170" width="50" height="50" as="geometry" />
        </mxCell>
        <mxCell id="yDH07ltFrhU01hjtsPNI-32" value="" style="verticalLabelPosition=bottom;verticalAlign=top;html=1;shape=mxgraph.flowchart.sort;rotation=45;fillColor=#66B2FF;" vertex="1" parent="1">
          <mxGeometry x="930" y="200" width="50" height="50" as="geometry" />
        </mxCell>
        <mxCell id="yDH07ltFrhU01hjtsPNI-33" value="" style="verticalLabelPosition=bottom;verticalAlign=top;html=1;shape=mxgraph.flowchart.sort;rotation=45;fillColor=#6666FF;" vertex="1" parent="1">
          <mxGeometry x="930" y="230" width="50" height="50" as="geometry" />
        </mxCell>
        <mxCell id="yDH07ltFrhU01hjtsPNI-34" value="" style="verticalLabelPosition=bottom;verticalAlign=top;html=1;shape=mxgraph.flowchart.sort;rotation=45;fillColor=#B266FF;" vertex="1" parent="1">
          <mxGeometry x="930" y="260" width="50" height="50" as="geometry" />
        </mxCell>
        <mxCell id="yDH07ltFrhU01hjtsPNI-35" value="" style="verticalLabelPosition=bottom;verticalAlign=top;html=1;shape=mxgraph.flowchart.sort;rotation=45;fillColor=#FF66FF;" vertex="1" parent="1">
          <mxGeometry x="930" y="290" width="50" height="50" as="geometry" />
        </mxCell>
        <mxCell id="yDH07ltFrhU01hjtsPNI-36" value="" style="verticalLabelPosition=bottom;verticalAlign=top;html=1;shape=mxgraph.flowchart.sort;rotation=45;fillColor=#FF66B3;" vertex="1" parent="1">
          <mxGeometry x="930" y="320" width="50" height="50" as="geometry" />
        </mxCell>
        <mxCell id="yDH07ltFrhU01hjtsPNI-37" value="" style="verticalLabelPosition=bottom;verticalAlign=top;html=1;shape=mxgraph.flowchart.sort;rotation=45;fillColor=#FF9999;" vertex="1" parent="1">
          <mxGeometry x="970" y="-10" width="50" height="50" as="geometry" />
        </mxCell>
        <mxCell id="yDH07ltFrhU01hjtsPNI-38" value="" style="verticalLabelPosition=bottom;verticalAlign=top;html=1;shape=mxgraph.flowchart.sort;rotation=45;fillColor=#FFCC99;" vertex="1" parent="1">
          <mxGeometry x="970" y="20" width="50" height="50" as="geometry" />
        </mxCell>
        <mxCell id="yDH07ltFrhU01hjtsPNI-39" value="" style="verticalLabelPosition=bottom;verticalAlign=top;html=1;shape=mxgraph.flowchart.sort;rotation=45;fillColor=#FFFF99;" vertex="1" parent="1">
          <mxGeometry x="970" y="50" width="50" height="50" as="geometry" />
        </mxCell>
        <mxCell id="yDH07ltFrhU01hjtsPNI-40" value="" style="verticalLabelPosition=bottom;verticalAlign=top;html=1;shape=mxgraph.flowchart.sort;rotation=45;fillColor=#CCFF99;" vertex="1" parent="1">
          <mxGeometry x="970" y="80" width="50" height="50" as="geometry" />
        </mxCell>
        <mxCell id="yDH07ltFrhU01hjtsPNI-41" value="" style="verticalLabelPosition=bottom;verticalAlign=top;html=1;shape=mxgraph.flowchart.sort;rotation=45;fillColor=#99FF99;" vertex="1" parent="1">
          <mxGeometry x="970" y="110" width="50" height="50" as="geometry" />
        </mxCell>
        <mxCell id="yDH07ltFrhU01hjtsPNI-42" value="" style="verticalLabelPosition=bottom;verticalAlign=top;html=1;shape=mxgraph.flowchart.sort;rotation=45;fillColor=#99FFCC;" vertex="1" parent="1">
          <mxGeometry x="970" y="140" width="50" height="50" as="geometry" />
        </mxCell>
        <mxCell id="yDH07ltFrhU01hjtsPNI-43" value="" style="verticalLabelPosition=bottom;verticalAlign=top;html=1;shape=mxgraph.flowchart.sort;rotation=45;fillColor=#99FFFF;" vertex="1" parent="1">
          <mxGeometry x="970" y="170" width="50" height="50" as="geometry" />
        </mxCell>
        <mxCell id="yDH07ltFrhU01hjtsPNI-44" value="" style="verticalLabelPosition=bottom;verticalAlign=top;html=1;shape=mxgraph.flowchart.sort;rotation=45;fillColor=#99CCFF;" vertex="1" parent="1">
          <mxGeometry x="970" y="200" width="50" height="50" as="geometry" />
        </mxCell>
        <mxCell id="yDH07ltFrhU01hjtsPNI-45" value="" style="verticalLabelPosition=bottom;verticalAlign=top;html=1;shape=mxgraph.flowchart.sort;rotation=45;fillColor=#9999FF;" vertex="1" parent="1">
          <mxGeometry x="970" y="230" width="50" height="50" as="geometry" />
        </mxCell>
        <mxCell id="yDH07ltFrhU01hjtsPNI-46" value="" style="verticalLabelPosition=bottom;verticalAlign=top;html=1;shape=mxgraph.flowchart.sort;rotation=45;fillColor=#CC99FF;" vertex="1" parent="1">
          <mxGeometry x="970" y="260" width="50" height="50" as="geometry" />
        </mxCell>
        <mxCell id="yDH07ltFrhU01hjtsPNI-47" value="" style="verticalLabelPosition=bottom;verticalAlign=top;html=1;shape=mxgraph.flowchart.sort;rotation=45;fillColor=#FF99FF;" vertex="1" parent="1">
          <mxGeometry x="970" y="290" width="50" height="50" as="geometry" />
        </mxCell>
        <mxCell id="yDH07ltFrhU01hjtsPNI-48" value="" style="verticalLabelPosition=bottom;verticalAlign=top;html=1;shape=mxgraph.flowchart.sort;rotation=45;fillColor=#FF99CC;" vertex="1" parent="1">
          <mxGeometry x="970" y="320" width="50" height="50" as="geometry" />
        </mxCell>
        <mxCell id="yDH07ltFrhU01hjtsPNI-50" value="" style="verticalLabelPosition=bottom;verticalAlign=top;html=1;shape=mxgraph.flowchart.sort;rotation=45;fillColor=#FFCCCC;" vertex="1" parent="1">
          <mxGeometry x="1010" y="-10" width="50" height="50" as="geometry" />
        </mxCell>
        <mxCell id="yDH07ltFrhU01hjtsPNI-51" value="" style="verticalLabelPosition=bottom;verticalAlign=top;html=1;shape=mxgraph.flowchart.sort;rotation=45;fillColor=#FFE6CC;" vertex="1" parent="1">
          <mxGeometry x="1010" y="20" width="50" height="50" as="geometry" />
        </mxCell>
        <mxCell id="yDH07ltFrhU01hjtsPNI-52" value="" style="verticalLabelPosition=bottom;verticalAlign=top;html=1;shape=mxgraph.flowchart.sort;rotation=45;fillColor=#FFFFCC;" vertex="1" parent="1">
          <mxGeometry x="1010" y="50" width="50" height="50" as="geometry" />
        </mxCell>
        <mxCell id="yDH07ltFrhU01hjtsPNI-53" value="" style="verticalLabelPosition=bottom;verticalAlign=top;html=1;shape=mxgraph.flowchart.sort;rotation=45;fillColor=#E6FFCC;" vertex="1" parent="1">
          <mxGeometry x="1010" y="80" width="50" height="50" as="geometry" />
        </mxCell>
        <mxCell id="yDH07ltFrhU01hjtsPNI-54" value="" style="verticalLabelPosition=bottom;verticalAlign=top;html=1;shape=mxgraph.flowchart.sort;rotation=45;fillColor=#CCFFCC;" vertex="1" parent="1">
          <mxGeometry x="1010" y="110" width="50" height="50" as="geometry" />
        </mxCell>
        <mxCell id="yDH07ltFrhU01hjtsPNI-55" value="" style="verticalLabelPosition=bottom;verticalAlign=top;html=1;shape=mxgraph.flowchart.sort;rotation=45;fillColor=#CCFFE6;" vertex="1" parent="1">
          <mxGeometry x="1010" y="140" width="50" height="50" as="geometry" />
        </mxCell>
        <mxCell id="yDH07ltFrhU01hjtsPNI-56" value="" style="verticalLabelPosition=bottom;verticalAlign=top;html=1;shape=mxgraph.flowchart.sort;rotation=45;fillColor=#CCFFFF;" vertex="1" parent="1">
          <mxGeometry x="1010" y="170" width="50" height="50" as="geometry" />
        </mxCell>
        <mxCell id="yDH07ltFrhU01hjtsPNI-57" value="" style="verticalLabelPosition=bottom;verticalAlign=top;html=1;shape=mxgraph.flowchart.sort;rotation=45;fillColor=#CCE5FF;" vertex="1" parent="1">
          <mxGeometry x="1010" y="200" width="50" height="50" as="geometry" />
        </mxCell>
        <mxCell id="yDH07ltFrhU01hjtsPNI-58" value="" style="verticalLabelPosition=bottom;verticalAlign=top;html=1;shape=mxgraph.flowchart.sort;rotation=45;fillColor=#CCCCFF;" vertex="1" parent="1">
          <mxGeometry x="1010" y="230" width="50" height="50" as="geometry" />
        </mxCell>
        <mxCell id="yDH07ltFrhU01hjtsPNI-59" value="" style="verticalLabelPosition=bottom;verticalAlign=top;html=1;shape=mxgraph.flowchart.sort;rotation=45;fillColor=#E5CCFF;" vertex="1" parent="1">
          <mxGeometry x="1010" y="260" width="50" height="50" as="geometry" />
        </mxCell>
        <mxCell id="yDH07ltFrhU01hjtsPNI-60" value="" style="verticalLabelPosition=bottom;verticalAlign=top;html=1;shape=mxgraph.flowchart.sort;rotation=45;fillColor=#FFCCFF;" vertex="1" parent="1">
          <mxGeometry x="1010" y="290" width="50" height="50" as="geometry" />
        </mxCell>
        <mxCell id="yDH07ltFrhU01hjtsPNI-61" value="" style="verticalLabelPosition=bottom;verticalAlign=top;html=1;shape=mxgraph.flowchart.sort;rotation=45;fillColor=#FFCCE6;" vertex="1" parent="1">
          <mxGeometry x="1010" y="320" width="50" height="50" as="geometry" />
        </mxCell>
        <mxCell id="yDH07ltFrhU01hjtsPNI-62" value="" style="verticalLabelPosition=bottom;verticalAlign=top;html=1;shape=mxgraph.flowchart.sort;rotation=45;fillColor=none;" vertex="1" parent="1">
          <mxGeometry x="1050" y="-10" width="50" height="50" as="geometry" />
        </mxCell>
        <mxCell id="yDH07ltFrhU01hjtsPNI-63" value="" style="verticalLabelPosition=bottom;verticalAlign=top;html=1;shape=mxgraph.flowchart.sort;rotation=45;fillColor=#FFFFFF;" vertex="1" parent="1">
          <mxGeometry x="1050" y="20" width="50" height="50" as="geometry" />
        </mxCell>
        <mxCell id="yDH07ltFrhU01hjtsPNI-64" value="" style="verticalLabelPosition=bottom;verticalAlign=top;html=1;shape=mxgraph.flowchart.sort;rotation=45;fillColor=#E6E6E6;" vertex="1" parent="1">
          <mxGeometry x="1050" y="50" width="50" height="50" as="geometry" />
        </mxCell>
        <mxCell id="yDH07ltFrhU01hjtsPNI-65" value="" style="verticalLabelPosition=bottom;verticalAlign=top;html=1;shape=mxgraph.flowchart.sort;rotation=45;fillColor=#CCCCCC;" vertex="1" parent="1">
          <mxGeometry x="1050" y="80" width="50" height="50" as="geometry" />
        </mxCell>
        <mxCell id="yDH07ltFrhU01hjtsPNI-66" value="" style="verticalLabelPosition=bottom;verticalAlign=top;html=1;shape=mxgraph.flowchart.sort;rotation=45;fillColor=#B3B3B3;" vertex="1" parent="1">
          <mxGeometry x="1050" y="110" width="50" height="50" as="geometry" />
        </mxCell>
        <mxCell id="yDH07ltFrhU01hjtsPNI-67" value="" style="verticalLabelPosition=bottom;verticalAlign=top;html=1;shape=mxgraph.flowchart.sort;rotation=45;fillColor=#999999;" vertex="1" parent="1">
          <mxGeometry x="1050" y="140" width="50" height="50" as="geometry" />
        </mxCell>
        <mxCell id="yDH07ltFrhU01hjtsPNI-68" value="" style="verticalLabelPosition=bottom;verticalAlign=top;html=1;shape=mxgraph.flowchart.sort;rotation=45;fillColor=#808080;" vertex="1" parent="1">
          <mxGeometry x="1050" y="170" width="50" height="50" as="geometry" />
        </mxCell>
        <mxCell id="yDH07ltFrhU01hjtsPNI-69" value="" style="verticalLabelPosition=bottom;verticalAlign=top;html=1;shape=mxgraph.flowchart.sort;rotation=45;fillColor=#666666;" vertex="1" parent="1">
          <mxGeometry x="1050" y="200" width="50" height="50" as="geometry" />
        </mxCell>
        <mxCell id="yDH07ltFrhU01hjtsPNI-70" value="" style="verticalLabelPosition=bottom;verticalAlign=top;html=1;shape=mxgraph.flowchart.sort;rotation=45;fillColor=#4D4D4D;" vertex="1" parent="1">
          <mxGeometry x="1050" y="230" width="50" height="50" as="geometry" />
        </mxCell>
        <mxCell id="yDH07ltFrhU01hjtsPNI-71" value="" style="verticalLabelPosition=bottom;verticalAlign=top;html=1;shape=mxgraph.flowchart.sort;rotation=45;fillColor=#333333;" vertex="1" parent="1">
          <mxGeometry x="1050" y="260" width="50" height="50" as="geometry" />
        </mxCell>
        <mxCell id="yDH07ltFrhU01hjtsPNI-72" value="" style="verticalLabelPosition=bottom;verticalAlign=top;html=1;shape=mxgraph.flowchart.sort;rotation=45;fillColor=#1A1A1A;" vertex="1" parent="1">
          <mxGeometry x="1050" y="290" width="50" height="50" as="geometry" />
        </mxCell>
        <mxCell id="yDH07ltFrhU01hjtsPNI-73" value="" style="verticalLabelPosition=bottom;verticalAlign=top;html=1;shape=mxgraph.flowchart.sort;rotation=45;fillColor=#000000;" vertex="1" parent="1">
          <mxGeometry x="1050" y="320" width="50" height="50" as="geometry" />
        </mxCell>
      </root>
    </mxGraphModel>
  </diagram>
  <diagram id="21L91fng7L-lDy2CjlmL" name="Página-2">
    <mxGraphModel dx="1877" dy="1734" grid="1" gridSize="10" guides="1" tooltips="1" connect="1" arrows="1" fold="1" page="1" pageScale="1" pageWidth="827" pageHeight="1169" math="0" shadow="0">
      <root>
        <mxCell id="0" />
        <mxCell id="1" parent="0" />
        <mxCell id="KPQx_qPiHRPWT3Hqt3iL-2" value="" style="edgeStyle=orthogonalEdgeStyle;rounded=0;orthogonalLoop=1;jettySize=auto;html=1;" edge="1" parent="1" source="grqnmEgSHNJ6UQO1mLxE-1" target="KPQx_qPiHRPWT3Hqt3iL-1">
          <mxGeometry relative="1" as="geometry" />
        </mxCell>
        <mxCell id="grqnmEgSHNJ6UQO1mLxE-1" value="Inicio" style="strokeWidth=2;html=1;shape=mxgraph.flowchart.start_1;whiteSpace=wrap;fillColor=#006600;" vertex="1" parent="1">
          <mxGeometry x="-480" y="-116" width="100" height="60" as="geometry" />
        </mxCell>
        <mxCell id="YEmh951YRQjVKfGNILsR-2" value="" style="edgeStyle=orthogonalEdgeStyle;rounded=0;orthogonalLoop=1;jettySize=auto;html=1;" edge="1" parent="1" source="KPQx_qPiHRPWT3Hqt3iL-1" target="YEmh951YRQjVKfGNILsR-1">
          <mxGeometry relative="1" as="geometry" />
        </mxCell>
        <mxCell id="KPQx_qPiHRPWT3Hqt3iL-1" value="Recebe número do usuário" style="shape=parallelogram;perimeter=parallelogramPerimeter;whiteSpace=wrap;html=1;fixedSize=1;fillColor=#CC6600;strokeWidth=2;" vertex="1" parent="1">
          <mxGeometry x="-495" y="34" width="130" height="60" as="geometry" />
        </mxCell>
        <mxCell id="gh747vkwj2t4QrQ5Xqwv-4" value="" style="edgeStyle=orthogonalEdgeStyle;rounded=0;orthogonalLoop=1;jettySize=auto;html=1;" edge="1" parent="1" source="gh747vkwj2t4QrQ5Xqwv-2" target="gh747vkwj2t4QrQ5Xqwv-3">
          <mxGeometry relative="1" as="geometry" />
        </mxCell>
        <mxCell id="gh747vkwj2t4QrQ5Xqwv-2" value="Inicio" style="strokeWidth=2;html=1;shape=mxgraph.flowchart.start_1;whiteSpace=wrap;fillColor=#006600;" vertex="1" parent="1">
          <mxGeometry x="354" y="480" width="100" height="60" as="geometry" />
        </mxCell>
        <mxCell id="aqlY_qk8pc0xDMJ3I420-2" value="" style="edgeStyle=orthogonalEdgeStyle;rounded=0;orthogonalLoop=1;jettySize=auto;html=1;" edge="1" parent="1" source="gh747vkwj2t4QrQ5Xqwv-3" target="aqlY_qk8pc0xDMJ3I420-1">
          <mxGeometry relative="1" as="geometry" />
        </mxCell>
        <mxCell id="gh747vkwj2t4QrQ5Xqwv-3" value="Recebe 1º número" style="shape=parallelogram;perimeter=parallelogramPerimeter;whiteSpace=wrap;html=1;fixedSize=1;fillColor=#CC6600;strokeWidth=2;" vertex="1" parent="1">
          <mxGeometry x="337" y="600" width="134" height="60" as="geometry" />
        </mxCell>
        <mxCell id="CSMzlGYHV38g7IiMrV25-2" value="" style="edgeStyle=orthogonalEdgeStyle;rounded=0;orthogonalLoop=1;jettySize=auto;html=1;" edge="1" parent="1" source="aqlY_qk8pc0xDMJ3I420-1">
          <mxGeometry relative="1" as="geometry">
            <mxPoint x="404" y="840" as="targetPoint" />
          </mxGeometry>
        </mxCell>
        <mxCell id="aqlY_qk8pc0xDMJ3I420-1" value="Recebe 2º número" style="shape=parallelogram;perimeter=parallelogramPerimeter;whiteSpace=wrap;html=1;fixedSize=1;fillColor=#CC6600;strokeWidth=2;" vertex="1" parent="1">
          <mxGeometry x="337" y="720" width="134" height="60" as="geometry" />
        </mxCell>
        <mxCell id="JyOryCJDA6OUHJhrQvn3-2" value="" style="edgeStyle=orthogonalEdgeStyle;rounded=0;orthogonalLoop=1;jettySize=auto;html=1;" edge="1" parent="1" target="JyOryCJDA6OUHJhrQvn3-1">
          <mxGeometry relative="1" as="geometry">
            <mxPoint x="404" y="900" as="sourcePoint" />
            <Array as="points">
              <mxPoint x="404" y="880" />
              <mxPoint x="617" y="880" />
            </Array>
          </mxGeometry>
        </mxCell>
        <mxCell id="vhjUTUm8AAN6-1jkMXwE-3" value="" style="edgeStyle=orthogonalEdgeStyle;rounded=0;orthogonalLoop=1;jettySize=auto;html=1;" edge="1" parent="1" source="vhjUTUm8AAN6-1jkMXwE-1" target="vhjUTUm8AAN6-1jkMXwE-2">
          <mxGeometry relative="1" as="geometry" />
        </mxCell>
        <mxCell id="vhjUTUm8AAN6-1jkMXwE-1" value="Inicio" style="strokeWidth=2;html=1;shape=mxgraph.flowchart.start_1;whiteSpace=wrap;fillColor=#006600;" vertex="1" parent="1">
          <mxGeometry x="270" y="-780" width="100" height="60" as="geometry" />
        </mxCell>
        <mxCell id="wMVvaKpDi3oHtMhcuiYi-9" value="" style="edgeStyle=orthogonalEdgeStyle;rounded=0;orthogonalLoop=1;jettySize=auto;html=1;" edge="1" parent="1" source="vhjUTUm8AAN6-1jkMXwE-2" target="wMVvaKpDi3oHtMhcuiYi-8">
          <mxGeometry relative="1" as="geometry" />
        </mxCell>
        <mxCell id="vhjUTUm8AAN6-1jkMXwE-2" value="Idade" style="shape=parallelogram;perimeter=parallelogramPerimeter;whiteSpace=wrap;html=1;fixedSize=1;fillColor=#CC6600;strokeWidth=2;" vertex="1" parent="1">
          <mxGeometry x="255" y="-630" width="130" height="60" as="geometry" />
        </mxCell>
        <mxCell id="PCZcsKvkbY-3akY8gNDb-2" value="" style="edgeStyle=orthogonalEdgeStyle;rounded=0;orthogonalLoop=1;jettySize=auto;html=1;" edge="1" parent="1" source="JyOryCJDA6OUHJhrQvn3-1" target="PCZcsKvkbY-3akY8gNDb-1">
          <mxGeometry relative="1" as="geometry">
            <Array as="points">
              <mxPoint x="617" y="1100" />
            </Array>
          </mxGeometry>
        </mxCell>
        <mxCell id="JyOryCJDA6OUHJhrQvn3-1" value="Menor" style="strokeWidth=2;html=1;shape=mxgraph.flowchart.display;whiteSpace=wrap;fillColor=#CC6600;" vertex="1" parent="1">
          <mxGeometry x="560" y="960" width="114" height="60" as="geometry" />
        </mxCell>
        <mxCell id="PCZcsKvkbY-3akY8gNDb-1" value="Fim" style="strokeWidth=2;html=1;shape=mxgraph.flowchart.start_1;whiteSpace=wrap;fillColor=#FF6666;" vertex="1" parent="1">
          <mxGeometry x="354" y="1070" width="100" height="60" as="geometry" />
        </mxCell>
        <mxCell id="rP4t-Dbw3QIf0et3NTaZ-3" value="" style="edgeStyle=orthogonalEdgeStyle;rounded=0;orthogonalLoop=1;jettySize=auto;html=1;" edge="1" parent="1" source="YEmh951YRQjVKfGNILsR-1" target="rP4t-Dbw3QIf0et3NTaZ-2">
          <mxGeometry relative="1" as="geometry">
            <Array as="points">
              <mxPoint x="-270" y="224" />
            </Array>
          </mxGeometry>
        </mxCell>
        <mxCell id="rP4t-Dbw3QIf0et3NTaZ-4" value="" style="edgeStyle=orthogonalEdgeStyle;rounded=0;orthogonalLoop=1;jettySize=auto;html=1;" edge="1" parent="1" source="YEmh951YRQjVKfGNILsR-1">
          <mxGeometry relative="1" as="geometry">
            <mxPoint x="-585" y="350" as="targetPoint" />
            <Array as="points">
              <mxPoint x="-584" y="224" />
            </Array>
          </mxGeometry>
        </mxCell>
        <mxCell id="YEmh951YRQjVKfGNILsR-1" value="Verificando se é negativo ou positivo" style="whiteSpace=wrap;html=1;fillColor=#666600;strokeWidth=2;shape=mxgraph.flowchart.decision;" vertex="1" parent="1">
          <mxGeometry x="-500" y="174" width="140" height="100" as="geometry" />
        </mxCell>
        <mxCell id="rP4t-Dbw3QIf0et3NTaZ-6" value="" style="edgeStyle=orthogonalEdgeStyle;rounded=0;orthogonalLoop=1;jettySize=auto;html=1;exitX=0.5;exitY=1;exitDx=0;exitDy=0;exitPerimeter=0;" edge="1" parent="1" source="rP4t-Dbw3QIf0et3NTaZ-1" target="rP4t-Dbw3QIf0et3NTaZ-5">
          <mxGeometry relative="1" as="geometry">
            <mxPoint x="-585" y="424" as="sourcePoint" />
            <Array as="points">
              <mxPoint x="-585" y="549" />
            </Array>
          </mxGeometry>
        </mxCell>
        <mxCell id="rP4t-Dbw3QIf0et3NTaZ-1" value="Exibir &#39;positivo&#39;" style="strokeWidth=2;html=1;shape=mxgraph.flowchart.display;whiteSpace=wrap;fillColor=#CC6600;" vertex="1" parent="1">
          <mxGeometry x="-640" y="354" width="110" height="60" as="geometry" />
        </mxCell>
        <mxCell id="rP4t-Dbw3QIf0et3NTaZ-7" value="" style="edgeStyle=orthogonalEdgeStyle;rounded=0;orthogonalLoop=1;jettySize=auto;html=1;" edge="1" parent="1" source="rP4t-Dbw3QIf0et3NTaZ-2" target="rP4t-Dbw3QIf0et3NTaZ-5">
          <mxGeometry relative="1" as="geometry">
            <Array as="points">
              <mxPoint x="-270" y="549" />
            </Array>
          </mxGeometry>
        </mxCell>
        <mxCell id="rP4t-Dbw3QIf0et3NTaZ-2" value="Exibir &#39;negativo&#39;" style="strokeWidth=2;html=1;shape=mxgraph.flowchart.display;whiteSpace=wrap;fillColor=#CC6600;" vertex="1" parent="1">
          <mxGeometry x="-330" y="354" width="110" height="60" as="geometry" />
        </mxCell>
        <mxCell id="rP4t-Dbw3QIf0et3NTaZ-5" value="Fim" style="strokeWidth=2;html=1;shape=mxgraph.flowchart.start_1;whiteSpace=wrap;fillColor=#FF6666;" vertex="1" parent="1">
          <mxGeometry x="-470" y="519" width="100" height="60" as="geometry" />
        </mxCell>
        <mxCell id="rP4t-Dbw3QIf0et3NTaZ-8" value="Sim" style="text;html=1;align=center;verticalAlign=middle;resizable=0;points=[];autosize=1;strokeColor=none;fillColor=none;" vertex="1" parent="1">
          <mxGeometry x="-590" y="204" width="40" height="30" as="geometry" />
        </mxCell>
        <mxCell id="rP4t-Dbw3QIf0et3NTaZ-9" value="Não" style="text;html=1;align=center;verticalAlign=middle;resizable=0;points=[];autosize=1;strokeColor=none;fillColor=none;" vertex="1" parent="1">
          <mxGeometry x="-315" y="202" width="50" height="30" as="geometry" />
        </mxCell>
        <mxCell id="wMVvaKpDi3oHtMhcuiYi-29" value="" style="edgeStyle=orthogonalEdgeStyle;rounded=0;orthogonalLoop=1;jettySize=auto;html=1;" edge="1" parent="1" source="wMVvaKpDi3oHtMhcuiYi-6" target="wMVvaKpDi3oHtMhcuiYi-28">
          <mxGeometry relative="1" as="geometry" />
        </mxCell>
        <mxCell id="wMVvaKpDi3oHtMhcuiYi-6" value="Verifica qual número é maior" style="strokeWidth=2;html=1;shape=mxgraph.flowchart.decision;whiteSpace=wrap;fillColor=#666600;" vertex="1" parent="1">
          <mxGeometry x="322" y="840" width="164" height="80" as="geometry" />
        </mxCell>
        <mxCell id="wMVvaKpDi3oHtMhcuiYi-11" value="" style="edgeStyle=orthogonalEdgeStyle;rounded=0;orthogonalLoop=1;jettySize=auto;html=1;" edge="1" parent="1" source="wMVvaKpDi3oHtMhcuiYi-8" target="wMVvaKpDi3oHtMhcuiYi-10">
          <mxGeometry relative="1" as="geometry" />
        </mxCell>
        <mxCell id="wMVvaKpDi3oHtMhcuiYi-14" value="" style="edgeStyle=orthogonalEdgeStyle;rounded=0;orthogonalLoop=1;jettySize=auto;html=1;" edge="1" parent="1" source="wMVvaKpDi3oHtMhcuiYi-8" target="wMVvaKpDi3oHtMhcuiYi-13">
          <mxGeometry relative="1" as="geometry" />
        </mxCell>
        <mxCell id="wMVvaKpDi3oHtMhcuiYi-8" value="&amp;gt;16" style="whiteSpace=wrap;html=1;fillColor=#666600;strokeWidth=2;shape=mxgraph.flowchart.decision;" vertex="1" parent="1">
          <mxGeometry x="250" y="-520" width="140" height="100" as="geometry" />
        </mxCell>
        <mxCell id="wMVvaKpDi3oHtMhcuiYi-26" value="" style="edgeStyle=orthogonalEdgeStyle;rounded=0;orthogonalLoop=1;jettySize=auto;html=1;" edge="1" parent="1" source="wMVvaKpDi3oHtMhcuiYi-10">
          <mxGeometry relative="1" as="geometry">
            <mxPoint x="320" y="141.60009765625" as="targetPoint" />
            <Array as="points">
              <mxPoint x="105" y="140" />
              <mxPoint x="321" y="140" />
            </Array>
          </mxGeometry>
        </mxCell>
        <mxCell id="wMVvaKpDi3oHtMhcuiYi-10" value="Não pode&amp;nbsp;" style="strokeWidth=2;html=1;shape=mxgraph.flowchart.display;whiteSpace=wrap;fillColor=#CC6600;" vertex="1" parent="1">
          <mxGeometry x="50" y="-346" width="110" height="60" as="geometry" />
        </mxCell>
        <mxCell id="wMVvaKpDi3oHtMhcuiYi-12" value="Não" style="text;html=1;align=center;verticalAlign=middle;resizable=0;points=[];autosize=1;strokeColor=none;fillColor=none;" vertex="1" parent="1">
          <mxGeometry x="105" y="-498" width="50" height="30" as="geometry" />
        </mxCell>
        <mxCell id="wMVvaKpDi3oHtMhcuiYi-17" value="" style="edgeStyle=orthogonalEdgeStyle;rounded=0;orthogonalLoop=1;jettySize=auto;html=1;" edge="1" parent="1" source="wMVvaKpDi3oHtMhcuiYi-13" target="wMVvaKpDi3oHtMhcuiYi-16">
          <mxGeometry relative="1" as="geometry" />
        </mxCell>
        <mxCell id="wMVvaKpDi3oHtMhcuiYi-13" value="Pode&amp;nbsp;" style="strokeWidth=2;html=1;shape=mxgraph.flowchart.display;whiteSpace=wrap;fillColor=#CC6600;" vertex="1" parent="1">
          <mxGeometry x="480" y="-346" width="110" height="60" as="geometry" />
        </mxCell>
        <mxCell id="wMVvaKpDi3oHtMhcuiYi-15" value="Sim" style="text;html=1;align=center;verticalAlign=middle;resizable=0;points=[];autosize=1;strokeColor=none;fillColor=none;" vertex="1" parent="1">
          <mxGeometry x="490" y="-498" width="40" height="30" as="geometry" />
        </mxCell>
        <mxCell id="wMVvaKpDi3oHtMhcuiYi-19" value="" style="edgeStyle=orthogonalEdgeStyle;rounded=0;orthogonalLoop=1;jettySize=auto;html=1;" edge="1" parent="1" source="wMVvaKpDi3oHtMhcuiYi-16" target="wMVvaKpDi3oHtMhcuiYi-18">
          <mxGeometry relative="1" as="geometry" />
        </mxCell>
        <mxCell id="wMVvaKpDi3oHtMhcuiYi-21" value="" style="edgeStyle=orthogonalEdgeStyle;rounded=0;orthogonalLoop=1;jettySize=auto;html=1;" edge="1" parent="1" source="wMVvaKpDi3oHtMhcuiYi-16" target="wMVvaKpDi3oHtMhcuiYi-20">
          <mxGeometry relative="1" as="geometry" />
        </mxCell>
        <mxCell id="wMVvaKpDi3oHtMhcuiYi-16" value="&amp;gt;17" style="whiteSpace=wrap;html=1;fillColor=#666600;strokeWidth=2;shape=mxgraph.flowchart.decision;" vertex="1" parent="1">
          <mxGeometry x="465" y="-216" width="140" height="100" as="geometry" />
        </mxCell>
        <mxCell id="wMVvaKpDi3oHtMhcuiYi-23" value="" style="edgeStyle=orthogonalEdgeStyle;rounded=0;orthogonalLoop=1;jettySize=auto;html=1;" edge="1" parent="1" source="wMVvaKpDi3oHtMhcuiYi-18" target="wMVvaKpDi3oHtMhcuiYi-22">
          <mxGeometry relative="1" as="geometry">
            <Array as="points">
              <mxPoint x="369" y="140" />
            </Array>
          </mxGeometry>
        </mxCell>
        <mxCell id="wMVvaKpDi3oHtMhcuiYi-18" value="Opicional" style="strokeWidth=2;html=1;shape=mxgraph.flowchart.display;whiteSpace=wrap;fillColor=#CC6600;" vertex="1" parent="1">
          <mxGeometry x="314" y="-50" width="110" height="60" as="geometry" />
        </mxCell>
        <mxCell id="wMVvaKpDi3oHtMhcuiYi-24" value="" style="edgeStyle=orthogonalEdgeStyle;rounded=0;orthogonalLoop=1;jettySize=auto;html=1;" edge="1" parent="1" source="wMVvaKpDi3oHtMhcuiYi-20" target="wMVvaKpDi3oHtMhcuiYi-22">
          <mxGeometry relative="1" as="geometry">
            <Array as="points">
              <mxPoint x="700" y="140" />
            </Array>
          </mxGeometry>
        </mxCell>
        <mxCell id="wMVvaKpDi3oHtMhcuiYi-20" value="Obrigatorio" style="strokeWidth=2;html=1;shape=mxgraph.flowchart.display;whiteSpace=wrap;fillColor=#CC6600;" vertex="1" parent="1">
          <mxGeometry x="650" y="-60" width="110" height="60" as="geometry" />
        </mxCell>
        <mxCell id="wMVvaKpDi3oHtMhcuiYi-22" value="Fim" style="strokeWidth=2;html=1;shape=mxgraph.flowchart.start_1;whiteSpace=wrap;fillColor=#FF6666;" vertex="1" parent="1">
          <mxGeometry x="319" y="110" width="100" height="60" as="geometry" />
        </mxCell>
        <mxCell id="wMVvaKpDi3oHtMhcuiYi-27" style="edgeStyle=orthogonalEdgeStyle;rounded=0;orthogonalLoop=1;jettySize=auto;html=1;" edge="1" parent="1" target="wMVvaKpDi3oHtMhcuiYi-22">
          <mxGeometry relative="1" as="geometry">
            <mxPoint x="105" y="-176" as="sourcePoint" />
            <Array as="points">
              <mxPoint x="105" y="140" />
            </Array>
          </mxGeometry>
        </mxCell>
        <mxCell id="wMVvaKpDi3oHtMhcuiYi-30" value="" style="edgeStyle=orthogonalEdgeStyle;rounded=0;orthogonalLoop=1;jettySize=auto;html=1;" edge="1" parent="1" source="wMVvaKpDi3oHtMhcuiYi-28" target="PCZcsKvkbY-3akY8gNDb-1">
          <mxGeometry relative="1" as="geometry">
            <Array as="points">
              <mxPoint x="187" y="1100" />
            </Array>
          </mxGeometry>
        </mxCell>
        <mxCell id="wMVvaKpDi3oHtMhcuiYi-28" value="Maior" style="strokeWidth=2;html=1;shape=mxgraph.flowchart.display;whiteSpace=wrap;fillColor=#CC6600;" vertex="1" parent="1">
          <mxGeometry x="130" y="970" width="114" height="60" as="geometry" />
        </mxCell>
        <mxCell id="wMVvaKpDi3oHtMhcuiYi-31" value="Sim" style="text;html=1;align=center;verticalAlign=middle;resizable=0;points=[];autosize=1;strokeColor=none;fillColor=none;" vertex="1" parent="1">
          <mxGeometry x="180" y="848" width="40" height="30" as="geometry" />
        </mxCell>
        <mxCell id="wMVvaKpDi3oHtMhcuiYi-32" value="Não" style="text;html=1;align=center;verticalAlign=middle;resizable=0;points=[];autosize=1;strokeColor=none;fillColor=none;" vertex="1" parent="1">
          <mxGeometry x="575" y="848" width="50" height="30" as="geometry" />
        </mxCell>
        <mxCell id="Hx1r3zxdKSABSejHpHOX-1" value="Sim" style="text;html=1;align=center;verticalAlign=middle;resizable=0;points=[];autosize=1;strokeColor=none;fillColor=none;" vertex="1" parent="1">
          <mxGeometry x="360" y="-192" width="40" height="30" as="geometry" />
        </mxCell>
        <mxCell id="Hx1r3zxdKSABSejHpHOX-2" value="Não" style="text;html=1;align=center;verticalAlign=middle;resizable=0;points=[];autosize=1;strokeColor=none;fillColor=none;" vertex="1" parent="1">
          <mxGeometry x="665" y="-192" width="50" height="30" as="geometry" />
        </mxCell>
      </root>
    </mxGraphModel>
  </diagram>
</mxfile>
